<svg width="231" height="46" viewBox="0 0 231 46" fill="none" xmlns="http://www.w3.org/2000/svg">
<rect y="0.5" width="41" height="41" rx="3" fill="white"/>
<rect x="15.375" y="10.75" width="21.7812" height="5.125" fill="#FF4F5A"/>
<rect x="15.375" y="19.7188" width="21.7812" height="5.125" fill="#FF4F5A"/>
<rect x="15.375" y="28.6875" width="21.7812" height="5.125" fill="#FF4F5A"/>
<path d="M58.92 36.5V16.772L51.72 17.132V11.012H72.78V17.132L65.4 16.772V30.74L65.796 34.34L65.4 36.5H58.92ZM80.7332 36.86C77.8052 36.86 75.5372 36.164 73.9292 34.772C72.3212 33.38 71.5172 31.124 71.5172 28.004C71.5172 24.86 72.3212 22.604 73.9292 21.236C75.5372 19.844 77.8052 19.148 80.7332 19.148C83.7332 19.148 86.0012 19.844 87.5372 21.236C89.0972 22.604 89.8772 24.86 89.8772 28.004C89.8772 31.124 89.0972 33.38 87.5372 34.772C86.0012 36.164 83.7332 36.86 80.7332 36.86ZM80.7332 32.18C81.7172 32.18 82.4012 31.82 82.7852 31.1C83.1692 30.356 83.3612 29.324 83.3612 28.004C83.3612 26.66 83.1692 25.628 82.7852 24.908C82.4012 24.188 81.7172 23.828 80.7332 23.828C79.7252 23.828 79.0172 24.188 78.6092 24.908C78.2252 25.628 78.0332 26.66 78.0332 28.004C78.0332 29.324 78.2252 30.356 78.6092 31.1C79.0172 31.82 79.7252 32.18 80.7332 32.18ZM98.5017 36.86C97.3737 36.86 96.2817 36.572 95.2257 35.996C94.1937 35.42 93.3417 34.508 92.6697 33.26C91.9977 32.012 91.6617 30.38 91.6617 28.364C91.6617 26.132 91.9857 24.344 92.6337 23C93.3057 21.656 94.1697 20.684 95.2257 20.084C96.2817 19.46 97.3737 19.148 98.5017 19.148C100.206 19.148 101.406 19.292 102.102 19.58C102.822 19.868 103.182 20.012 103.182 20.012L102.822 13.208L103.182 11.048H109.698V30.74L110.418 34.34L109.698 36.536H103.542V34.772L103.182 34.592C103.182 34.592 103.002 34.784 102.642 35.168C102.282 35.528 101.754 35.9 101.058 36.284C100.362 36.668 99.5097 36.86 98.5017 36.86ZM101.202 31.784L103.182 31.28V26.024C103.182 25.472 103.002 25.04 102.642 24.728C102.282 24.392 101.802 24.224 101.202 24.224C100.314 24.224 99.6417 24.524 99.1857 25.124C98.7297 25.7 98.5017 26.66 98.5017 28.004C98.5017 29.324 98.7657 30.284 99.2937 30.884C99.8217 31.484 100.458 31.784 101.202 31.784ZM121.971 36.86C119.043 36.86 116.775 36.164 115.167 34.772C113.559 33.38 112.755 31.124 112.755 28.004C112.755 24.86 113.559 22.604 115.167 21.236C116.775 19.844 119.043 19.148 121.971 19.148C124.971 19.148 127.239 19.844 128.775 21.236C130.335 22.604 131.115 24.86 131.115 28.004C131.115 31.124 130.335 33.38 128.775 34.772C127.239 36.164 124.971 36.86 121.971 36.86ZM121.971 32.18C122.955 32.18 123.639 31.82 124.023 31.1C124.407 30.356 124.599 29.324 124.599 28.004C124.599 26.66 124.407 25.628 124.023 24.908C123.639 24.188 122.955 23.828 121.971 23.828C120.963 23.828 120.255 24.188 119.847 24.908C119.463 25.628 119.271 26.66 119.271 28.004C119.271 29.324 119.463 30.356 119.847 31.1C120.255 31.82 120.963 32.18 121.971 32.18ZM143.528 36.5V16.808L142.808 13.208L143.528 11.012H154.256C155.984 11.012 157.64 11.18 159.224 11.516C160.832 11.828 162.26 12.428 163.508 13.316C164.78 14.204 165.776 15.476 166.496 17.132C167.24 18.788 167.612 20.936 167.612 23.576C167.612 26.216 167.24 28.388 166.496 30.092C165.752 31.772 164.744 33.08 163.472 34.016C162.2 34.952 160.76 35.6 159.152 35.96C157.568 36.32 155.936 36.5 154.256 36.5H143.528ZM150.08 30.74H154.256C156.368 30.74 157.988 30.188 159.116 29.084C160.244 27.956 160.808 26.12 160.808 23.576C160.808 21.032 160.232 19.268 159.08 18.284C157.952 17.276 156.344 16.772 154.256 16.772H150.08V30.74ZM175.895 36.86C174.863 36.86 173.903 36.716 173.015 36.428C172.151 36.116 171.455 35.588 170.927 34.844C170.399 34.1 170.135 33.068 170.135 31.748C170.135 30.548 170.435 29.552 171.035 28.76C171.635 27.968 172.451 27.38 173.483 26.996C174.515 26.612 175.679 26.42 176.975 26.42C178.223 26.42 179.159 26.564 179.783 26.852C180.407 27.116 180.947 27.392 181.403 27.68L181.655 27.464C181.655 26.744 181.595 26.144 181.475 25.664C181.355 25.184 181.079 24.824 180.647 24.584C180.215 24.32 179.543 24.188 178.631 24.188C177.743 24.188 176.795 24.272 175.787 24.44C174.803 24.584 173.891 24.776 173.051 25.016C172.235 25.232 171.623 25.448 171.215 25.664V20.264C171.959 20 173.015 19.76 174.383 19.544C175.775 19.304 177.479 19.184 179.495 19.184C181.655 19.184 183.359 19.46 184.607 20.012C185.879 20.54 186.791 21.32 187.343 22.352C187.895 23.36 188.171 24.572 188.171 25.988V30.776L188.891 34.412L188.171 36.536H182.015V34.772L181.655 34.592C181.463 34.784 181.127 35.06 180.647 35.42C180.167 35.78 179.531 36.116 178.739 36.428C177.947 36.716 176.999 36.86 175.895 36.86ZM178.955 32.144C179.603 32.144 180.155 32.084 180.611 31.964C181.091 31.844 181.439 31.736 181.655 31.64V30.956C181.655 30.644 181.427 30.344 180.971 30.056C180.539 29.768 179.855 29.624 178.919 29.624C177.623 29.624 176.975 30.08 176.975 30.992C176.975 31.376 177.119 31.664 177.407 31.856C177.695 32.048 178.211 32.144 178.955 32.144ZM195.724 18.464L191.152 13.856L195.724 9.284L200.296 13.856L195.724 18.464ZM192.484 36.5V24.584L191.728 21.704L192.448 19.508H198.964V36.5H192.484ZM203.032 36.5L202.996 16.772L202.276 13.172L203.032 11.012H209.512V36.5H203.032ZM215.3 45.248L210.224 43.448L211.664 38.084L216.704 39.524C217.736 39.524 218.48 39.248 218.936 38.696C219.416 38.168 219.776 37.424 220.016 36.464H216.308L212.348 24.152L211.664 19.472H218.504L220.484 31.352H221.204L223.184 19.472H230.024C230.024 19.472 229.94 19.856 229.772 20.624C229.628 21.368 229.412 22.364 229.124 23.612C228.86 24.86 228.536 26.24 228.152 27.752C227.792 29.24 227.408 30.752 227 32.288C226.592 33.8 226.172 35.192 225.74 36.464C225.092 38.456 224.312 40.1 223.4 41.396C222.512 42.692 221.42 43.652 220.124 44.276C218.828 44.924 217.22 45.248 215.3 45.248Z" fill="white"/>
</svg>
